<?xml version="1.0" encoding="UTF-8"?>
<svg width="192px" height="192px" viewBox="0 0 192 192" version="1.1" xmlns="http://www.w3.org/2000/svg" xmlns:xlink="http://www.w3.org/1999/xlink">
    <title>192x192@1x</title>
    <g id="192x192" stroke="none" stroke-width="1" fill="none" fill-rule="evenodd">
        <rect fill="#FFFFFF" x="0" y="0" width="192" height="192"></rect>
        <path d="M89.7501277,32.0082702 L89.7507693,51.3937523 C67.986291,54.506978 51.2556864,73.2245704 51.2556864,95.849927 C51.2556864,120.653592 71.3630155,140.760857 96.1666164,140.760857 C106.254253,140.760857 115.565572,137.434882 123.063131,131.819732 L136.771871,145.526548 C125.711593,154.578025 111.573632,160.008398 96.1666164,160.008398 C60.732855,160.008398 32.008145,131.283368 32.008145,95.849927 C32.008145,62.5817065 57.3290557,35.2275498 89.7501277,32.0082702 Z M160.008145,102.266416 C158.7269,115.168684 153.623736,126.946255 145.846446,136.451333 L132.136422,122.746441 C136.538976,116.867601 139.534535,109.874327 140.622663,102.265774 L160.008145,102.266416 Z M102.589521,32.0089117 C132.897341,35.0214086 156.998471,59.1249123 160.008145,89.4334383 L140.622663,89.4327967 C137.808672,69.7664288 122.254092,54.2105658 102.588879,51.3947147 L102.589521,32.0089117 Z" id="Shape" fill="#3A59D1" fill-rule="nonzero"></path>
    </g>
</svg>